<svg width="960" height="540" viewBox="0 0 960 540" fill="none" xmlns="http://www.w3.org/2000/svg">
  <rect width="960" height="540" rx="28" fill="#FAF7F2"/>
  <rect x="36" y="36" width="888" height="468" rx="22" fill="#FFFCF7" stroke="#E9E1D5"/>
  <rect x="76" y="82" width="244" height="24" rx="12" fill="#E8DED1"/>
  <rect x="76" y="130" width="512" height="18" rx="9" fill="#EFE8DE"/>
  <rect x="76" y="160" width="458" height="18" rx="9" fill="#F3EDE4"/>
  <rect x="76" y="190" width="490" height="18" rx="9" fill="#F3EDE4"/>
  <rect x="76" y="236" width="808" height="180" rx="20" fill="#1F2937"/>
  <rect x="104" y="266" width="176" height="14" rx="7" fill="#93C5FD" fill-opacity="0.92"/>
  <rect x="292" y="266" width="120" height="14" rx="7" fill="#E5E7EB" fill-opacity="0.88"/>
  <rect x="104" y="298" width="686" height="14" rx="7" fill="#F9FAFB" fill-opacity="0.9"/>
  <rect x="104" y="330" width="640" height="14" rx="7" fill="#F9FAFB" fill-opacity="0.78"/>
  <rect x="104" y="362" width="720" height="14" rx="7" fill="#C4B5FD" fill-opacity="0.82"/>
  <rect x="104" y="394" width="600" height="14" rx="7" fill="#FDE68A" fill-opacity="0.82"/>
  <rect x="620" y="82" width="264" height="98" rx="18" fill="#F6F0E7" stroke="#E7DDD0"/>
  <rect x="644" y="106" width="112" height="14" rx="7" fill="#D6C7B6"/>
  <rect x="644" y="134" width="196" height="12" rx="6" fill="#E6DCCF"/>
  <rect x="644" y="156" width="174" height="12" rx="6" fill="#EEE6DA"/>
  <circle cx="862" cy="436" r="36" fill="#DDD1C0"/>
  <path d="M848 436H876" stroke="#6B7280" stroke-width="5" stroke-linecap="round"/>
  <path d="M862 422V450" stroke="#6B7280" stroke-width="5" stroke-linecap="round"/>
</svg>
